<svg width="118" height="118" viewBox="0 0 118 118" fill="none"
  xmlns="http://www.w3.org/2000/svg">
  <path fill-rule="evenodd" clip-rule="evenodd" d="M27.3657 30.8049H16.6337C15.2808 30.8049 14.1739 29.7135 14.1739 28.3799V17.6731C14.1739 16.3394 15.2808 15.248 16.6337 15.248H27.3657C28.7186 15.248 29.8256 16.3394 29.8256 17.6731V28.3799C29.8256 29.7135 28.7186 30.8049 27.3657 30.8049Z" fill="#E8EAF6"/>
  <path fill-rule="evenodd" clip-rule="evenodd" d="M90.5882 101.881C89.2352 101.881 88.1283 100.781 88.1283 99.4356V88.6364C88.1283 87.2911 89.2352 86.1904 90.5882 86.1904H101.32C102.673 86.1904 103.78 87.2911 103.78 88.6364V99.4356C103.78 100.781 102.673 101.881 101.32 101.881H90.5882Z" fill="#C5CAE9"/>
  <path d="M95.1599 14.4043H46.6629C43.1988 14.4043 40.3905 17.2126 40.3905 20.6767V69.3266C40.3905 72.7908 43.1988 75.5991 46.6629 75.5991H95.1599C98.6241 75.5991 101.432 72.7908 101.432 69.3266V20.6767C101.432 17.2126 98.6241 14.4043 95.1599 14.4043Z" fill="#9575CD"/>
  <path fill-rule="evenodd" clip-rule="evenodd" d="M56.1727 35.8157C55.8843 35.8157 55.6509 35.4477 55.6509 34.9929V31.7019C55.6509 31.2479 55.8843 30.8799 56.1727 30.8799H70.7809C71.0693 30.8799 71.3027 31.2479 71.3027 31.7019V34.9929C71.3027 35.4477 71.0693 35.8157 70.7809 35.8157H56.1727Z" fill="white"/>
  <path fill-rule="evenodd" clip-rule="evenodd" d="M93.4758 47.5838H56.9554C56.2344 47.5838 55.6509 47.2157 55.6509 46.761V43.47C55.6509 43.016 56.2344 42.6479 56.9554 42.6479H93.4758C94.1968 42.6479 94.7803 43.016 94.7803 43.47V46.761C94.7803 47.2157 94.1968 47.5838 93.4758 47.5838Z" fill="white"/>
  <path fill-rule="evenodd" clip-rule="evenodd" d="M56.6945 59.3518C56.1177 59.3518 55.6509 58.9838 55.6509 58.5291V55.238C55.6509 54.784 56.1177 54.416 56.6945 54.416H85.9109C86.4876 54.416 86.9544 54.784 86.9544 55.238V58.5291C86.9544 58.9838 86.4876 59.3518 85.9109 59.3518H56.6945Z" fill="white"/>
  <path d="M68.9432 42.2559H20.4463C16.9821 42.2559 14.1738 45.0641 14.1738 48.5283V97.1782C14.1738 100.642 16.9821 103.451 20.4463 103.451H68.9432C72.4074 103.451 75.2156 100.642 75.2156 97.1782V48.5283C75.2156 45.0641 72.4074 42.2559 68.9432 42.2559Z" fill="#E8EAF6"/>
  <path d="M20.4463 42.2559H68.9432C72.4074 42.2559 75.2156 45.0641 75.2156 48.5283V56.673H14.1738V48.5283C14.1738 45.0641 16.9821 42.2559 20.4463 42.2559Z" fill="#9FA8DA"/>
  <path d="M64.6463 63.0464H24.3519C23.0528 63.0464 21.9997 64.0995 21.9997 65.3986V70.5011C21.9997 71.8001 23.0528 72.8532 24.3519 72.8532H64.6463C65.9454 72.8532 66.9985 71.8001 66.9985 70.5011V65.3986C66.9985 64.0995 65.9454 63.0464 64.6463 63.0464Z" fill="white"/>
  <path d="M64.6463 79.2935H24.3519C23.0528 79.2935 21.9997 80.3466 21.9997 81.6456V94.2013C21.9997 95.5004 23.0528 96.5535 24.3519 96.5535H64.6463C65.9454 96.5535 66.9985 95.5004 66.9985 94.2013V81.6456C66.9985 80.3466 65.9454 79.2935 64.6463 79.2935Z" fill="white"/>
</svg>
